<?xml version="1.0" encoding="UTF-8" standalone="no"?>
<svg
   viewBox="0 0 448 512"
   version="1.1"
   id="svg4"
   sodipodi:docname="plus-solid.svg"
   xml:space="preserve"
   inkscape:version="1.2.1 (9c6d41e410, 2022-07-14)"
   xmlns:inkscape="http://www.inkscape.org/namespaces/inkscape"
   xmlns:sodipodi="http://sodipodi.sourceforge.net/DTD/sodipodi-0.dtd"
   xmlns="http://www.w3.org/2000/svg"
   xmlns:svg="http://www.w3.org/2000/svg"><defs
     id="defs8" /><sodipodi:namedview
     id="namedview6"
     pagecolor="#505050"
     bordercolor="#ffffff"
     borderopacity="1"
     inkscape:showpageshadow="0"
     inkscape:pageopacity="0"
     inkscape:pagecheckerboard="1"
     inkscape:deskcolor="#505050"
     showgrid="false"
     inkscape:zoom="0.80957031"
     inkscape:cx="290.89505"
     inkscape:cy="285.33655"
     inkscape:window-width="1920"
     inkscape:window-height="1009"
     inkscape:window-x="-8"
     inkscape:window-y="-8"
     inkscape:window-maximized="1"
     inkscape:current-layer="svg4" /><!--! Font Awesome Pro 6.2.1 by @fontawesome - https://fontawesome.com License - https://fontawesome.com/license (Commercial License) Copyright 2022 Fonticons, Inc. --><path
     d="m 93.273268,210.94757 c 0,-5.84854 -4.725091,-10.57363 -10.573629,-10.57363 -5.848539,0 -10.573629,4.72509 -10.573629,10.57363 V 258.5289 H 24.544679 c -5.848539,0 -10.57363,4.72509 -10.57363,10.57363 0,5.84854 4.725091,10.57363 10.57363,10.57363 H 72.12601 v 47.58133 c 0,5.84854 4.72509,10.57363 10.573629,10.57363 5.848538,0 10.573629,-4.72509 10.573629,-10.57363 V 279.67616 H 140.8546 c 5.84854,0 10.57363,-4.72509 10.57363,-10.57363 0,-5.84854 -4.72509,-10.57363 -10.57363,-10.57363 H 93.273268 Z"
     id="path2"
     style="stroke-width:0.330426;fill:#ffffff" /><path
     style="fill:#ffffff;stroke-width:0.51857"
     d="m 182.73281,372.56177 c -5.2503,-1.56637 -8.37959,-3.48711 -12.76147,-7.83293 -3.65479,-3.6247 -5.50466,-6.57181 -7.65838,-12.20089 -1.08061,-2.82436 -1.09774,-3.48757 -1.24427,-48.17081 -0.12024,-36.6714 -0.0219,-45.26017 0.51602,-45.06129 0.36552,0.13514 29.25076,9.77646 64.18943,21.42513 l 63.52484,21.17943 4.66714,-0.0531 4.66712,-0.0531 63.78177,-21.31029 c 35.07997,-11.72066 63.84116,-21.31029 63.91378,-21.31029 0.0726,0 0.13201,19.68131 0.13201,43.73623 0,41.52456 -0.0507,43.93431 -1.0018,47.65325 -0.55099,2.15435 -1.74952,5.40034 -2.6634,7.2133 -2.27855,4.52018 -8.4526,10.62955 -12.92905,12.7936 -7.11606,3.44012 1.2908,3.21046 -116.39831,3.17985 l -106.84615,-0.0278 z m 44.33775,-108.89464 -65.85841,-21.95025 v -15.51477 c 0,-16.97273 0.0648,-17.42969 3.42648,-24.15354 3.03179,-6.06404 10.28003,-12.25892 17.05704,-14.57818 3.30561,-1.13126 3.99162,-1.15857 35.52206,-1.41397 l 32.15135,-0.26044 0.25929,-8.32611 0.25928,-8.32611 1.95288,-3.94929 c 2.33749,-4.72709 5.81246,-8.10837 10.75209,-10.4622 l 3.37071,-1.60621 h 27.7704 27.7704 l 3.95138,1.95287 c 4.72926,2.33733 8.10958,5.81061 10.4643,10.75209 1.53814,3.22788 1.61719,3.72228 1.86549,11.66783 l 0.25928,8.29713 32.41064,0.25928 32.41063,0.25928 3.46339,1.3483 c 9.13422,3.55593 15.53119,10.38622 18.8926,20.17237 0.87513,2.54779 0.97968,4.5077 0.97968,18.3669 v 15.51477 l -65.85842,21.95025 c -36.22213,12.07264 -66.20845,21.95025 -66.63627,21.95025 -0.42782,0 -30.41414,-9.87761 -66.63627,-21.95025 z m 88.67551,-83.31614 V 174.906 H 293.70683 271.6676 l -0.15031,4.88751 c -0.0826,2.68814 -0.0307,5.19926 0.11554,5.58028 0.21713,0.56582 4.28285,0.66796 22.18954,0.55747 l 21.9237,-0.13528 z"
     id="path303" /></svg>
