<?xml version="1.0" encoding="UTF-8" standalone="no"?>
<!-- Created with Inkscape (http://www.inkscape.org/) -->

<svg
   width="350"
   height="350"
   viewBox="0 0 150 150"
   version="1.1"
   id="SVGRoot"
   sodipodi:docname="splash.svg"
   xml:space="preserve"
   inkscape:version="1.2.1 (9c6d41e410, 2022-07-14)"
   xmlns:inkscape="http://www.inkscape.org/namespaces/inkscape"
   xmlns:sodipodi="http://sodipodi.sourceforge.net/DTD/sodipodi-0.dtd"
   xmlns="http://www.w3.org/2000/svg"
   xmlns:svg="http://www.w3.org/2000/svg"><sodipodi:namedview
     id="namedview187"
     pagecolor="#505050"
     bordercolor="#ffffff"
     borderopacity="1"
     inkscape:showpageshadow="0"
     inkscape:pageopacity="0"
     inkscape:pagecheckerboard="1"
     inkscape:deskcolor="#505050"
     inkscape:document-units="px"
     showgrid="false"
     inkscape:zoom="4.1776837"
     inkscape:cx="82.222596"
     inkscape:cy="68.698355"
     inkscape:window-width="1920"
     inkscape:window-height="1009"
     inkscape:window-x="-8"
     inkscape:window-y="-8"
     inkscape:window-maximized="1"
     inkscape:current-layer="layer1"
     showguides="true" /><defs
     id="defs182"><rect
       x="65.333626"
       y="188.89203"
       width="43.668587"
       height="58.901817"
       id="rect540" /></defs><g
     inkscape:label="Camada 1"
     inkscape:groupmode="layer"
     id="layer1"><path
       style="fill:#ffffff;stroke-width:0.24403;fill-opacity:1"
       d="m 128.79072,134.72333 c -1.65532,-0.59893 -2.24818,-1.07644 -6.2363,-5.02296 l -3.67399,-3.63565 -0.47453,0.52509 c -0.94824,1.04931 -2.79251,1.77898 -4.51478,1.78624 -1.33592,0.006 -1.8192,-0.11569 -2.92837,-0.73512 -1.52041,-0.84909 -2.83585,-2.56277 -3.06442,-3.99213 -0.24352,-1.52289 -0.24901,-1.52501 -2.79741,-1.0822 -3.32048,0.57696 -8.313293,0.37486 -11.518223,-0.46624 -2.72373,-0.71481 -6.22916,-2.29928 -8.50285,-3.84331 -0.85571,-0.5811 -2.50066,-1.96736 -3.65545,-3.08058 l -2.09961,-2.02403 -26.45235,-0.004 c -29.13741,-0.004 -28.07687,0.048 -31.06621,-1.52116 -2.19017,-1.14964 -4.51499,-3.56474 -5.57946,-5.79613 -0.4802,-1.00663 -0.99123,-2.48182 -1.1356,-3.27821 -0.17981,-0.99181 -0.26137,-12.946746 -0.2589,-37.946681 0.003,-31.666452 0.0523,-36.705362 0.37158,-38.059722 1.08394,-4.598414 4.8401,-8.457435 9.41798,-9.67588 1.98047,-0.527121 81.677573,-0.521871 83.659303,0.0055 4.1833,1.11327 7.52084,4.160465 9.09416,8.30304 l 0.55609,1.46418 0.0668,24.255932 0.0667,24.25593 1.59352,1.577911 c 5.95954,5.901185 8.86745,14.764358 7.58545,23.120124 -0.206,1.342646 -0.44814,2.632956 -0.53808,2.867346 -0.13553,0.35317 -0.0232,0.4266 0.65566,0.42857 1.05773,0.003 3.07723,0.9612 3.9162,1.85799 2.18335,2.33378 2.21711,6.0537 0.078,8.58793 l -0.68298,0.80912 3.80549,3.83244 c 4.59655,4.6291 5.17145,5.59712 5.17176,8.7082 1.7e-4,1.72051 -0.097,2.15485 -0.80316,3.5892 -0.87521,1.77782 -2.13388,3.02596 -3.92671,3.89385 -1.47153,0.71236 -4.5644,0.86122 -6.12928,0.29501 z m 4.89005,-3.76151 c 1.94879,-0.9942 2.90257,-3.57025 2.09996,-5.67175 -0.28682,-0.75098 -1.39838,-2.03595 -4.05838,-4.69149 l -3.66338,-3.65723 -3.29464,3.28785 -3.29463,3.28786 3.23346,3.26405 c 3.97252,4.01011 4.92472,4.67359 6.70738,4.67359 0.82678,0 1.65773,-0.18041 2.27023,-0.49288 z m -18.73092,-6.43443 c 0.43304,-0.18666 3.8227,-3.39648 7.5571,-7.15615 l 6.77183,-6.81766 v -1.15964 c 0,-0.95634 -0.12506,-1.2847 -0.71332,-1.87296 -0.8103,-0.81031 -2.02875,-0.95247 -3.14227,-0.36663 -0.36243,0.19068 -3.63885,3.34782 -7.28092,7.01586 -5.05457,5.09062 -6.66143,6.8542 -6.78871,7.45084 -0.22568,1.05783 0.41952,2.36292 1.4095,2.85114 0.9606,0.47373 1.20175,0.47981 2.18679,0.0552 z m -10.61443,-5.5268 c 0.84364,-0.13691 2.38103,-0.51691 3.41642,-0.84446 l 1.88252,-0.59553 6.26068,-6.29159 6.26068,-6.29158 0.61174,-1.95801 c 2.61914,-8.383137 0.53682,-17.217046 -5.54145,-23.508749 -4.32473,-4.476596 -9.37812,-6.760854 -15.57578,-7.04064 -3.738283,-0.168759 -6.000923,0.148998 -9.205663,1.292801 -5.61931,2.005591 -10.42405,6.286001 -13.12443,11.692202 -1.95533,3.914601 -2.77847,8.621754 -2.26307,12.941424 1.22592,10.274562 8.5461,18.278992 18.71075,20.459732 1.96495,0.42156 6.399123,0.49629 8.567603,0.1444 z m -7.082323,-5.12407 c -6.95668,-1.17138 -12.92048,-6.77078 -14.5787,-13.68789 -1.99635,-8.327557 2.06536,-17.06077 9.63382,-20.714 2.95593,-1.426803 4.65257,-1.808727 8.053003,-1.81278 3.50515,-0.0042 5.16652,0.380182 8.3063,1.921664 5.88339,2.888459 9.84899,9.124663 9.96174,15.66557 0.0403,2.34082 -0.34355,3.01753 -1.71182,3.01753 -1.319,0 -1.69282,-0.593066 -1.85966,-2.95037 -0.39213,-5.54015 -3.44419,-10.271012 -8.10591,-12.564619 -4.22891,-2.080655 -8.606543,-2.076196 -12.941553,0.01318 -3.54324,1.707764 -6.20934,4.693004 -7.48276,8.378459 -0.47232,1.366973 -0.56412,2.129099 -0.56412,4.683052 0,3.688495 0.49422,5.400964 2.36666,8.200494 1.99628,2.98467 4.94197,5.07633 8.39151,5.95857 6.147783,1.57234 12.496243,-0.9281 16.049273,-6.32126 1.18182,-1.79388 1.8647,-2.19363 2.92334,-1.71128 0.58288,0.26558 1.13903,1.13693 1.13903,1.78461 0,0.17779 -0.53253,1.1335 -1.18339,2.12378 -3.99364,6.07638 -11.2182,9.22405 -18.396763,8.01529 z m -20.49196,-4.56755 c -0.64282,-1.28097 -1.65704,-3.57268 -1.65704,-3.74421 0,-0.13087 -9.90921,-0.22128 -24.25313,-0.22128 h -24.25313 l -1.30064,-0.67947 c -1.05292,-0.55005 -1.43006,-0.92719 -1.98011,-1.9801 l -0.67946,-1.30064 V 70.777524 c 0,-33.520898 -0.0855,-31.520775 1.41611,-33.122154 1.45215,-1.548608 1.8148,-1.60516 10.3313,-1.611072 8.57886,-0.006 8.58482,-0.0049 8.89966,1.625668 0.12101,0.626683 0.0289,0.898025 -0.47623,1.403173 l -0.62625,0.626252 h -7.4958 c -6.63247,0 -7.54721,0.04651 -7.94207,0.403867 -0.42775,0.387107 -0.44627,1.654692 -0.44627,30.545555 0,27.704705 0.0326,30.177767 0.40386,30.587957 0.38592,0.42643 1.44442,0.44627 23.80939,0.44627 22.4412,0 23.39975,-0.0181 23.26587,-0.43995 -0.0768,-0.24197 -0.24623,-1.55871 -0.37651,-2.926086 -0.53556,-5.620882 0.82051,-11.634369 3.69159,-16.370337 3.73684,-6.164071 9.65638,-10.608584 16.50788,-12.39446 3.03334,-0.790655 8.501553,-1.036264 11.214603,-0.503714 l 1.76922,0.347284 V 54.993852 c 0,-13.058692 -0.0377,-14.443548 -0.40386,-14.848194 -0.38691,-0.427521 -1.61047,-0.446267 -29.128693,-0.446267 -28.69062,0 -28.72559,-4.89e-4 -29.36781,-0.505772 -0.84053,-0.661166 -0.85912,-1.74058 -0.044,-2.555697 l 0.59898,-0.598983 h 29.00276 29.002763 l 1.24048,0.618155 c 0.77491,0.386153 1.5027,0.996467 1.93915,1.626144 l 0.69867,1.007988 0.0679,15.566292 0.0679,15.566292 1.97357,0.987807 c 1.08547,0.543294 2.01798,0.987807 2.07225,0.987807 0.0543,0 0.069,-10.185207 0.0328,-22.633792 l -0.0659,-22.633792 -0.75321,-1.586196 c -0.91097,-1.9184 -2.61927,-3.665978 -4.47517,-4.578062 l -1.36043,-0.668585 H 66.441027 25.199937 l -1.46814,0.767816 c -1.8066,0.944818 -3.59921,2.818901 -4.46666,4.669647 l -0.65401,1.39538 -0.0649,37.07789 c -0.0719,41.11246 -0.17097,38.45051 1.52728,41.04139 1.30598,1.99242 3.33249,3.4392 5.61445,4.00833 0.95971,0.23935 51.19284,0.28806 51.07313,0.0495 z M 31.777657,92.054938 c -0.32944,-0.329441 -0.59898,-0.883499 -0.59898,-1.231242 0,-0.347743 0.26954,-0.901801 0.59898,-1.231242 l 0.59899,-0.598984 h 12.7167 c 8.49705,0 12.8772,0.0859 13.2004,0.258867 1.17046,0.626413 1.06043,2.56176 -0.17772,3.125899 -0.42467,0.193492 -4.35185,0.275686 -13.17222,0.275686 h -12.56716 z m 0,-7.808963 c -0.32944,-0.329441 -0.59898,-0.883499 -0.59898,-1.231242 0,-0.347743 0.26954,-0.901801 0.59898,-1.231242 l 0.59899,-0.598984 h 12.7167 c 7.67426,0 12.89059,0.09307 13.15524,0.234703 0.24121,0.129087 0.57208,0.557065 0.73528,0.951061 0.24413,0.589382 0.23003,0.845321 -0.0795,1.443936 -0.20694,0.400168 -0.55401,0.795792 -0.77128,0.879165 -0.21726,0.08337 -6.10134,0.151587 -13.07572,0.151587 h -12.6807 z m 0,-7.808964 c -0.32944,-0.32944 -0.59898,-0.883498 -0.59898,-1.231241 0,-0.347743 0.26954,-0.901801 0.59898,-1.231242 l 0.59899,-0.598984 h 12.56275 c 7.01531,0 12.82234,0.09869 13.15061,0.2235 1.24302,0.472593 1.37623,2.550585 0.20374,3.178084 -0.3232,0.172971 -4.70335,0.258867 -13.2004,0.258867 h -12.7167 z m 0.47967,-11.946883 c -1.30444,-0.408409 -2.44396,-1.2681 -2.79081,-2.105478 -0.22378,-0.54026 -0.20193,-0.82056 0.11118,-1.426046 0.56671,-1.0959 1.42587,-1.226607 2.83947,-0.431982 1.38096,0.776277 1.54874,0.788552 2.17793,0.159357 0.46518,-0.465175 0.48806,-0.813433 0.48806,-7.427032 0,-3.816435 0.10058,-7.203505 0.2235,-7.526823 0.4726,-1.243016 2.55059,-1.376227 3.17809,-0.203735 0.35126,0.656336 0.34703,14.464232 -0.005,15.731375 -0.34232,1.232794 -2.01309,2.889173 -3.30307,3.274609 -1.21929,0.364317 -1.6347,0.358021 -2.91953,-0.04424 z m 17.0226,0.08325 c -3.00434,-0.591231 -5.62652,-2.650713 -7.05501,-5.541074 -0.87931,-1.779153 -0.91899,-1.965921 -0.91899,-4.325062 0,-2.359142 0.0397,-2.54591 0.91899,-4.325063 1.4928,-3.020487 4.13676,-5.003993 7.44753,-5.587174 4.14416,-0.729979 8.68214,1.674229 10.61489,5.623735 0.73922,1.510558 0.78503,1.760818 0.78503,4.288502 0,2.527683 -0.0458,2.777943 -0.78503,4.288502 -1.39547,2.851601 -4.22254,4.994024 -7.38013,5.59285 -1.47913,0.28051 -2.13861,0.277743 -3.62728,-0.0152 z m 3.87817,-3.788362 c 1.64646,-0.48324 3.61725,-2.37372 4.07592,-3.909816 1.06359,-3.562044 -0.81413,-7.272492 -4.18727,-8.274209 -1.52278,-0.452217 -2.19293,-0.45249 -3.70454,-0.0015 -1.50143,0.447937 -2.83334,1.531572 -3.70499,3.014343 -0.58077,0.987951 -0.67084,1.403307 -0.67084,3.093418 0,1.690111 0.0901,2.105467 0.67084,3.093418 0.84824,1.442955 2.19019,2.56075 3.59969,2.998408 1.46408,0.454606 2.33506,0.451485 3.92119,-0.01406 z m 11.54155,3.777503 c -0.28667,-0.146206 -0.64357,-0.534336 -0.7931,-0.862515 -0.38053,-0.835185 -0.37707,-17.157936 0.004,-17.9939 0.45154,-0.991012 1.35195,-1.193935 4.81847,-1.08593 2.9839,0.09297 3.20584,0.135442 4.32567,0.82778 1.75853,1.087215 2.61463,2.448515 2.73572,4.350093 0.0744,1.168496 -0.0185,1.812192 -0.37936,2.627935 l -0.4779,1.080375 0.89555,1.009162 c 2.05656,2.317454 1.98993,5.730703 -0.15853,8.120299 -1.5773,1.754335 -2.45653,2.028576 -6.78866,2.11744 -2.30813,0.04735 -3.85301,-0.02311 -4.18168,-0.190739 z m 8.22859,-4.307444 c 0.53278,-0.596614 0.71168,-1.04038 0.71168,-1.765367 0,-0.724987 -0.1789,-1.168753 -0.71168,-1.765367 -0.70209,-0.786212 -0.74483,-0.798079 -3.17239,-0.880825 l -2.46072,-0.08387 v 2.730065 2.730065 l 2.46072,-0.08387 c 2.42756,-0.08275 2.4703,-0.09461 3.17239,-0.880825 z m -1.3173,-8.640747 c 0.70017,-0.657773 0.74603,-1.875849 0.10064,-2.672871 -0.4041,-0.499049 -0.71982,-0.584818 -2.4403,-0.662949 l -1.97615,-0.08974 v 1.978078 1.978082 h 1.87551 c 1.58977,0 1.96155,-0.08084 2.4403,-0.530598 z m -44.0313,-18.529246 c -1.89202,-0.936532 -2.98977,-2.719182 -2.98977,-4.855107 0,-4.810183 5.72089,-7.309798 9.13693,-3.992178 1.18469,1.150549 1.66991,2.307551 1.67423,3.992178 0.0102,3.969418 -4.25807,6.618925 -7.82139,4.855107 z m 3.82536,-3.789881 c 0.6885,-0.875294 0.63576,-1.460839 -0.20755,-2.304148 -0.84331,-0.84331 -1.42885,-0.896053 -2.30415,-0.207547 -0.80567,0.633743 -0.88156,1.939981 -0.15492,2.666619 0.72664,0.72664 2.03288,0.65075 2.66662,-0.154924 z m 8.0707,3.927367 c -1.99434,-0.894175 -3.22119,-2.799818 -3.22119,-5.003407 0,-5.078726 6.1475,-7.383772 9.50224,-3.56293 2.13758,2.434574 1.5694,6.313406 -1.19254,8.141172 -1.2528,0.829064 -3.72664,1.035763 -5.08851,0.425165 z m 3.41642,-3.772443 c 0.72664,-0.726638 0.65075,-2.032876 -0.15492,-2.666619 -0.88117,-0.69313 -1.46138,-0.63522 -2.32906,0.23246 -0.59752,0.597514 -0.7066,0.864981 -0.57229,1.403173 0.0913,0.365718 0.33912,0.857115 0.55079,1.091994 0.52721,0.585018 1.89271,0.551769 2.50548,-0.06101 z"
       id="path312" /></g></svg>
