<?xml version="1.0" encoding="UTF-8" standalone="no"?>
<!-- Created with Inkscape (http://www.inkscape.org/) -->

<svg
   width="456"
   height="456"
   viewBox="0 0 456 456"
   version="1.1"
   id="SVGRoot"
   sodipodi:docname="appiconfg.svg"
   xml:space="preserve"
   inkscape:version="1.2.1 (9c6d41e410, 2022-07-14)"
   xmlns:inkscape="http://www.inkscape.org/namespaces/inkscape"
   xmlns:sodipodi="http://sodipodi.sourceforge.net/DTD/sodipodi-0.dtd"
   xmlns="http://www.w3.org/2000/svg"
   xmlns:svg="http://www.w3.org/2000/svg"><sodipodi:namedview
     id="namedview187"
     pagecolor="#505050"
     bordercolor="#ffffff"
     borderopacity="1"
     inkscape:showpageshadow="0"
     inkscape:pageopacity="0"
     inkscape:pagecheckerboard="1"
     inkscape:deskcolor="#505050"
     inkscape:document-units="px"
     showgrid="false"
     inkscape:zoom="1.4770342"
     inkscape:cx="158.7641"
     inkscape:cy="220.71256"
     inkscape:window-width="1920"
     inkscape:window-height="1009"
     inkscape:window-x="-8"
     inkscape:window-y="-8"
     inkscape:window-maximized="1"
     inkscape:current-layer="layer1"
     showguides="true" /><defs
     id="defs182"><rect
       x="65.333626"
       y="188.89203"
       width="43.668587"
       height="58.901817"
       id="rect540" /></defs><g
     inkscape:label="Camada 1"
     inkscape:groupmode="layer"
     id="layer1"><path
       style="fill:#ffffff;fill-opacity:1;stroke-width:0.401152"
       d="m 309.1425,323.54274 c -2.65239,-1.01006 -3.60235,-1.81537 -9.99266,-8.47104 l -5.88697,-6.13139 -0.76035,0.88555 c -1.51941,1.76962 -4.47455,3.00018 -7.23421,3.01242 -2.14059,0.0101 -2.91497,-0.1951 -4.69224,-1.23975 -2.4362,-1.43196 -4.54398,-4.32202 -4.91022,-6.73259 -0.3902,-2.5683 -0.39901,-2.57187 -4.4824,-1.82509 -5.32053,0.97302 -13.3207,0.63219 -18.45608,-0.78629 -4.36433,-1.20551 -9.98121,-3.87766 -13.62443,-6.48161 -1.37113,-0.98 -4.0069,-3.31789 -5.85726,-5.19529 l -3.36428,-3.41346 -42.38558,-0.007 c -46.68795,-0.007 -44.98861,0.081 -49.77854,-2.56538 -3.50939,-1.93883 -7.23454,-6.01181 -8.94018,-9.77497 -0.76944,-1.69765 -1.58828,-4.1855 -1.81961,-5.52859 -0.28812,-1.67265 -0.4188,-21.83422 -0.41485,-63.99574 0.005,-53.40435 0.0838,-61.90229 0.5954,-64.18637 1.73684,-7.75506 7.75547,-14.26317 15.09078,-16.31803 3.17338,-0.88897 130.875,-0.88012 134.0504,0.009 6.70305,1.87749 12.05092,7.01648 14.5719,14.00278 l 0.89105,2.46929 0.10704,40.90677 0.10687,40.90677 2.55336,2.66109 c 9.54919,9.95214 14.20865,24.89957 12.15445,38.99127 -0.33009,2.26432 -0.71807,4.44039 -0.86219,4.83568 -0.21716,0.59561 -0.0372,0.71945 1.05059,0.72277 1.69484,0.005 4.93076,1.62103 6.27508,3.13344 3.49845,3.93583 3.55255,10.20934 0.12497,14.48323 l -1.09436,1.36456 6.09768,6.46327 c 7.36522,7.80682 8.2864,9.43934 8.2869,14.68608 2.7e-4,2.90157 -0.15543,3.63407 -1.28693,6.05305 -1.40239,2.99823 -3.41919,5.10318 -6.29192,6.56684 -2.35788,1.20137 -7.31371,1.45242 -9.82117,0.49752 z m 7.8355,-6.34365 c 3.12262,-1.67668 4.6509,-6.0211 3.36485,-9.56521 -0.45959,-1.26649 -2.24068,-3.43355 -6.5029,-7.91203 l -5.86997,-6.16778 -5.27912,5.54484 -5.27911,5.54485 5.1811,5.50472 c 6.36531,6.7629 7.89106,7.88184 10.74748,7.88184 1.32478,0 2.65624,-0.30426 3.63767,-0.83123 z m -30.01324,-10.85143 c 0.69387,-0.3148 6.12525,-5.72805 12.10901,-12.0686 l 10.85077,-11.49774 v -1.95569 c 0,-1.61284 -0.2004,-2.16661 -1.14299,-3.15869 -1.29837,-1.36655 -3.25074,-1.6063 -5.03497,-0.61831 -0.58073,0.32158 -5.83066,5.64599 -11.66649,11.83201 -8.09913,8.58514 -10.67386,11.55936 -10.8778,12.56557 -0.36162,1.78399 0.67221,3.98499 2.25849,4.80835 1.53921,0.79893 1.92561,0.80918 3.50398,0.0931 z m -17.0079,-9.32076 c 1.35179,-0.23089 3.81522,-0.87175 5.47426,-1.42415 l 3.01643,-1.00434 10.03172,-10.61055 10.03172,-10.61052 0.98021,-3.30212 c 4.19674,-14.13786 0.86017,-29.03594 -8.87927,-39.64667 -6.92968,-7.54963 -15.02691,-11.40194 -24.95765,-11.87379 -5.98999,-0.28462 -9.6155,0.25128 -14.75057,2.18025 -9.00403,3.38236 -16.70285,10.60112 -21.02976,19.7185 -3.1331,6.60183 -4.45204,14.54028 -3.6262,21.82525 1.96433,17.32769 13.69373,30.82688 29.98093,34.50461 3.14851,0.71095 10.25355,0.83698 13.72818,0.24353 z m -11.34827,-8.64156 c -11.14695,-1.97549 -20.70295,-11.41868 -23.35999,-23.08415 -3.19883,-14.04412 3.30941,-28.77239 15.43663,-34.93343 4.73639,-2.40625 7.45499,-3.05035 12.90362,-3.05719 5.61644,-0.007 8.27851,0.64117 13.30949,3.24082 9.42718,4.87129 15.7814,15.38843 15.96207,26.41944 0.0646,3.9477 -0.55048,5.08895 -2.74291,5.08895 -2.11348,0 -2.71247,-1.00018 -2.97981,-4.97569 -0.62832,-9.34327 -5.51875,-17.32171 -12.9884,-21.18979 -6.77613,-3.50895 -13.79058,-3.50143 -20.73672,0.0222 -5.67747,2.8801 -9.94946,7.91459 -11.9899,14.12998 -0.75683,2.30535 -0.90392,3.59065 -0.90392,7.8978 0,6.22052 0.79191,9.10854 3.79219,13.82984 3.19871,5.03354 7.9187,8.56106 13.44602,10.04892 9.85082,2.6517 20.0232,-1.5652 25.71635,-10.66058 1.89368,-3.02532 2.98788,-3.69948 4.68418,-2.88601 0.93397,0.44789 1.82511,1.91739 1.82511,3.00969 0,0.29983 -0.8533,1.9116 -1.8962,3.58167 -6.39915,10.2476 -17.97533,15.55604 -29.47781,13.5175 z m -32.83502,-7.70301 c -1.03002,-2.16031 -2.65514,-6.0252 -2.65514,-6.31448 0,-0.22071 -15.87789,-0.37318 -38.86169,-0.37318 h -38.86169 l -2.08406,-1.14591 c -1.68713,-0.92764 -2.29144,-1.56366 -3.1728,-3.33937 l -1.08873,-2.19348 V 215.7004 c 0,-56.53181 -0.137,-53.15867 2.26909,-55.85934 2.32683,-2.61167 2.90792,-2.70705 16.55422,-2.71702 13.74623,-0.0101 13.75578,-0.008 14.26026,2.74163 0.1939,1.05688 0.0463,1.51449 -0.76308,2.36641 l -1.00347,1.05615 h -12.0108 c -10.62745,0 -12.09317,0.0784 -12.72587,0.68111 -0.6854,0.65284 -0.71507,2.79057 -0.71507,51.514 0,46.723 0.0522,50.89373 0.64712,51.58551 0.61837,0.71916 2.31444,0.75262 38.15066,0.75262 35.95837,0 37.49429,-0.0305 37.27977,-0.74196 -0.12306,-0.40808 -0.39454,-2.62872 -0.6033,-4.93475 -0.85814,-9.47942 1.31474,-19.62095 5.91517,-27.60799 5.98768,-10.39549 15.47278,-17.89101 26.45119,-20.90282 4.86043,-1.33341 13.62236,-1.74763 17.96957,-0.84949 l 2.83489,0.58567 V 189.0818 c 0,-22.02302 -0.0604,-24.35854 -0.64712,-25.04096 -0.61996,-0.721 -2.58052,-0.75261 -46.67398,-0.75261 -45.97205,0 -46.02808,-0.001 -47.05713,-0.85297 -1.34681,-1.11503 -1.3766,-2.93542 -0.0705,-4.31009 l 0.95976,-1.01016 h 46.4722 46.4722 l 1.98767,1.04249 c 1.24166,0.65124 2.40783,1.68051 3.10717,2.74244 l 1.11951,1.69993 0.10879,26.25201 0.1088,26.252 3.16233,1.6659 c 1.73929,0.91624 3.23348,1.6659 3.32044,1.6659 0.087,0 0.11056,-17.17699 0.0526,-38.17109 l -0.1056,-38.17109 -1.20689,-2.67507 c -1.45969,-3.23531 -4.19695,-6.18254 -7.17074,-7.72074 l -2.17986,-1.12754 h -66.08219 -66.08212 l -2.35246,1.29489 c -2.89478,1.59341 -5.76715,4.75398 -7.15709,7.8752 l -1.04795,2.35326 -0.10399,62.53055 c -0.11521,69.33471 -0.27395,64.84543 2.44722,69.21485 2.09262,3.36015 5.33977,5.80009 8.99624,6.75991 1.53778,0.40366 82.02818,0.4858 81.83636,0.0835 z m -72.0787,-29.09832 c -0.52787,-0.55559 -0.95977,-1.48999 -0.95977,-2.07645 0,-0.58645 0.4319,-1.52085 0.95977,-2.07644 l 0.95978,-1.01016 h 20.37644 c 13.61515,0 20.63362,0.14486 21.1515,0.43656 1.87546,1.05643 1.69916,4.32032 -0.28478,5.27172 -0.68046,0.32632 -6.97312,0.46493 -21.10632,0.46493 h -20.13684 z m 0,-13.16954 c -0.52787,-0.55559 -0.95977,-1.48999 -0.95977,-2.07645 0,-0.58645 0.4319,-1.52085 0.95977,-2.07645 l 0.95978,-1.01016 h 20.37644 c 12.29675,0 20.65507,0.15696 21.07913,0.39582 0.3865,0.2177 0.91667,0.93947 1.17817,1.60393 0.39118,0.99397 0.36859,1.4256 -0.12738,2.43515 -0.3316,0.67487 -0.88772,1.34207 -1.23585,1.48268 -0.34813,0.1406 -9.77641,0.25564 -20.95172,0.25564 h -20.31875 z m 0,-13.16954 c -0.52787,-0.55559 -0.95977,-1.49 -0.95977,-2.07645 0,-0.58646 0.4319,-1.52086 0.95977,-2.07644 l 0.95978,-1.01017 h 20.12976 c 11.24089,0 20.54572,0.16644 21.07171,0.37692 1.99174,0.79702 2.20519,4.30148 0.32647,5.35974 -0.51788,0.2917 -7.53635,0.43656 -21.1515,0.43656 h -20.37644 z m 0.76859,-20.148 c -2.09015,-0.68877 -3.91604,-2.1386 -4.47182,-3.55081 -0.35857,-0.91113 -0.32356,-1.38385 0.17815,-2.40498 0.90806,-1.8482 2.28473,-2.06863 4.54979,-0.72852 2.21276,1.30916 2.4816,1.32986 3.48978,0.26875 0.74537,-0.7845 0.78203,-1.37183 0.78203,-12.52543 0,-6.43628 0.16117,-12.14845 0.35813,-12.69372 0.75726,-2.0963 4.0869,-2.32096 5.09237,-0.34359 0.56283,1.10689 0.55606,24.39342 -0.008,26.53041 -0.54851,2.07906 -3.22565,4.87248 -5.29263,5.52251 -1.95372,0.61441 -2.61934,0.60379 -4.67807,-0.0746 z m 27.27595,0.1404 c -4.81396,-0.99709 -9.01559,-4.47033 -11.30451,-9.34482 -1.40895,-3.00048 -1.47253,-3.31546 -1.47253,-7.29407 0,-3.97861 0.0636,-4.29359 1.47253,-7.29407 2.39197,-5.09394 6.62848,-8.43905 11.93346,-9.42256 6.64034,-1.23109 13.91171,2.82352 17.00863,9.48422 1.18448,2.54751 1.25788,2.96956 1.25788,7.23241 0,4.26285 -0.0734,4.6849 -1.25788,7.23241 -2.23602,4.80912 -6.76594,8.42224 -11.82545,9.43214 -2.37007,0.47307 -3.42678,0.4684 -5.81213,-0.0256 z m 6.21413,-6.38894 c 2.63819,-0.81497 5.79605,-4.00319 6.531,-6.59376 1.70423,-6.00726 -1.30451,-12.26481 -6.70942,-13.95416 -2.44001,-0.76265 -3.51381,-0.76311 -5.93592,-0.002 -2.4058,0.75543 -4.53997,2.58294 -5.93664,5.08358 -0.93059,1.66614 -1.07491,2.36663 -1.07491,5.21694 0,2.85031 0.14437,3.5508 1.07491,5.21694 1.35916,2.43349 3.50943,4.31861 5.76791,5.05671 2.34596,0.76667 3.74156,0.76141 6.28307,-0.0237 z m 18.49346,6.37063 c -0.45935,-0.24657 -1.03122,-0.90114 -1.27082,-1.4546 -0.60973,-1.40852 -0.60419,-28.93625 0.006,-30.34608 0.72351,-1.67131 2.16627,-2.01353 7.72081,-1.83138 4.78121,0.15679 5.13683,0.22842 6.93118,1.39602 2.81775,1.83355 4.18951,4.12933 4.38355,7.33628 0.11921,1.97062 -0.0296,3.05619 -0.60787,4.43191 l -0.76575,1.82202 1.43497,1.70192 c 3.2953,3.90831 3.18853,9.66462 -0.25403,13.69459 -2.52736,2.95862 -3.93618,3.42112 -10.87771,3.57099 -3.6984,0.0799 -6.17382,-0.039 -6.70047,-0.32167 z m 13.18497,-7.26435 c 0.85369,-1.00618 1.14035,-1.75456 1.14035,-2.97723 0,-1.22267 -0.28666,-1.97106 -1.14035,-2.97724 -1.12498,-1.32591 -1.19347,-1.34592 -5.08324,-1.48547 l -3.9429,-0.14144 v 4.60415 4.60416 l 3.9429,-0.14144 c 3.88977,-0.13956 3.95826,-0.15956 5.08324,-1.48548 z m -2.11076,-14.57232 c 1.12191,-1.10931 1.19539,-3.16355 0.16126,-4.5077 -0.64751,-0.84163 -1.15339,-0.98628 -3.91018,-1.11804 l -3.16646,-0.15135 v 3.33596 3.33597 h 3.0052 c 2.54735,0 3.14306,-0.13633 3.91018,-0.89483 z m -70.55298,-31.24892 c -3.03166,-1.57943 -4.79062,-4.5858 -4.79062,-8.18797 0,-8.1122 9.16679,-12.32771 14.64044,-6.73266 1.89827,1.94036 2.67576,3.8916 2.68268,6.73266 0.0163,6.69429 -6.82286,11.16259 -12.5325,8.18797 z m 6.12951,-6.3915 c 1.10321,-1.47615 1.0187,-2.46365 -0.33256,-3.88586 -1.35127,-1.42222 -2.2895,-1.51117 -3.69203,-0.35002 -1.29095,1.06878 -1.41255,3.2717 -0.24823,4.49715 1.16432,1.22546 3.25736,1.09747 4.27282,-0.26127 z m 12.93198,6.62337 c -3.1956,-1.508 -5.16143,-4.7218 -5.16143,-8.43807 0,-8.5651 9.85037,-12.45247 15.22579,-6.00876 3.42513,4.10582 2.51471,10.64734 -1.91084,13.7298 -2.00741,1.39819 -5.97134,1.74678 -8.15352,0.71703 z m 5.47426,-6.3621 c 1.16433,-1.22545 1.04273,-3.42837 -0.24823,-4.49715 -1.41193,-1.16894 -2.34163,-1.07128 -3.73194,0.39203 -0.95743,1.00769 -1.13221,1.45876 -0.91701,2.3664 0.1463,0.61677 0.54339,1.4455 0.88256,1.84161 0.84476,0.98661 3.03276,0.93054 4.01462,-0.10289 z"
       id="path312" /></g></svg>
